<svg width="40" height="40" viewBox="0 0 40 40" fill="none" xmlns="http://www.w3.org/2000/svg">
  <!-- Background with gradient -->
  <rect width="40" height="40" rx="8" fill="url(#gradient)"/>
  
  <defs>
    <linearGradient id="gradient" x1="0" y1="0" x2="40" y2="40" gradientUnits="userSpaceOnUse">
      <stop offset="0%" stop-color="#228be6"/>
      <stop offset="100%" stop-color="#1c7ed6"/>
    </linearGradient>
  </defs>
  
  <!-- Left curly brace -->
  <path d="M13 11.5C13 10.6716 13.6716 10 14.5 10C15.3284 10 16 10.6716 16 11.5V15.5C16 16.3284 16.6716 17 17.5 17C18.3284 17 19 17.6716 19 18.5V19.5C19 20.3284 18.3284 21 17.5 21C16.6716 21 16 21.6716 16 22.5V26.5C16 27.3284 15.3284 28 14.5 28C13.6716 28 13 27.3284 13 26.5V22.5C13 20.8431 11.6569 19.5 10 19.5C9.17157 19.5 8.5 18.8284 8.5 18C8.5 17.1716 9.17157 16.5 10 16.5C11.6569 16.5 13 15.1569 13 13.5V11.5Z" fill="white" fill-opacity="0.95"/>
  
  <!-- Right curly brace -->
  <path d="M27 11.5C27 10.6716 26.3284 10 25.5 10C24.6716 10 24 10.6716 24 11.5V15.5C24 16.3284 23.3284 17 22.5 17C21.6716 17 21 17.6716 21 18.5V19.5C21 20.3284 21.6716 21 22.5 21C23.3284 21 24 21.6716 24 22.5V26.5C24 27.3284 24.6716 28 25.5 28C26.3284 28 27 27.3284 27 26.5V22.5C27 20.8431 28.3431 19.5 30 19.5C30.8284 19.5 31.5 18.8284 31.5 18C31.5 17.1716 30.8284 16.5 30 16.5C28.3431 16.5 27 15.1569 27 13.5V11.5Z" fill="white" fill-opacity="0.95"/>
  
  <!-- Form lines in the middle -->
  <line x1="17.5" y1="14" x2="22.5" y2="14" stroke="white" stroke-width="2" stroke-linecap="round" stroke-opacity="0.8"/>
  <line x1="17.5" y1="19" x2="22.5" y2="19" stroke="white" stroke-width="2" stroke-linecap="round" stroke-opacity="0.8"/>
  <line x1="17.5" y1="24" x2="22.5" y2="24" stroke="white" stroke-width="2" stroke-linecap="round" stroke-opacity="0.8"/>
</svg>
